<svg width="512" height="512" viewBox="0 0 512 512" xmlns="http://www.w3.org/2000/svg">
  <defs>
    <!-- Dégradé bleu foncé futuriste -->
    <linearGradient id="main-gradient" x1="0%" y1="0%" x2="100%" y2="100%">
      <stop offset="0%" style="stop-color:#1e3a8a;stop-opacity:1" />
      <stop offset="100%" style="stop-color:#1e40af;stop-opacity:1" />
    </linearGradient>
    <linearGradient id="accent-gradient" x1="0%" y1="0%" x2="100%" y2="0%">
      <stop offset="0%" style="stop-color:#3b82f6;stop-opacity:1" />
      <stop offset="100%" style="stop-color:#60a5fa;stop-opacity:1" />
    </linearGradient>
  </defs>

  <!-- Fond blanc neutre -->
  <rect width="512" height="512" fill="#ffffff"/>

  <!-- Design futuriste - Forme hexagonale moderne -->
  <g transform="translate(256, 200)">
    <!-- Hexagone principal -->
    <path d="M 0,-80 L 70,-40 L 70,40 L 0,80 L -70,40 L -70,-40 Z"
          fill="url(#main-gradient)"
          opacity="0.1"/>

    <!-- Hexagone interne -->
    <path d="M 0,-60 L 52,-30 L 52,30 L 0,60 L -52,30 L -52,-30 Z"
          fill="none"
          stroke="url(#main-gradient)"
          stroke-width="3"/>

    <!-- Forme de sneaker stylisée et futuriste -->
    <g transform="translate(-50, -15)">
      <!-- Base sneaker géométrique -->
      <path d="M 20,0 L 80,0 Q 90,0 95,8 L 100,25 L 15,25 Q 10,25 10,20 Z"
            fill="url(#main-gradient)"/>

      <!-- Ligne dynamique futuriste -->
      <path d="M 30,8 L 75,8 Q 85,8 88,15"
            fill="none"
            stroke="url(#accent-gradient)"
            stroke-width="4"
            stroke-linecap="round"/>

      <!-- Détails technologiques -->
      <circle cx="85" cy="15" r="3" fill="#3b82f6"/>
      <circle cx="75" cy="18" r="2" fill="#60a5fa"/>
    </g>
  </g>

  <!-- Éléments géométriques décoratifs -->
  <g opacity="0.15">
    <!-- Cercles concentriques -->
    <circle cx="256" cy="200" r="120" fill="none" stroke="#1e40af" stroke-width="1"/>
    <circle cx="256" cy="200" r="140" fill="none" stroke="#1e40af" stroke-width="0.5"/>
  </g>

  <!-- Points de connexion futuristes -->
  <circle cx="186" cy="160" r="4" fill="#3b82f6" opacity="0.4"/>
  <circle cx="326" cy="160" r="4" fill="#3b82f6" opacity="0.4"/>
  <circle cx="186" cy="240" r="4" fill="#3b82f6" opacity="0.4"/>
  <circle cx="326" cy="240" r="4" fill="#3b82f6" opacity="0.4"/>

  <!-- Lignes de connexion subtiles -->
  <line x1="186" y1="160" x2="256" y2="140" stroke="#1e40af" stroke-width="1" opacity="0.2"/>
  <line x1="326" y1="160" x2="256" y2="140" stroke="#1e40af" stroke-width="1" opacity="0.2"/>

  <!-- Texte OneStock -->
  <text x="256" y="370"
        font-family="Arial, -apple-system, sans-serif"
        font-size="52"
        font-weight="700"
        text-anchor="middle"
        fill="url(#main-gradient)"
        letter-spacing="2">OneStock</text>

  <!-- Sous-titre -->
  <text x="256" y="400"
        font-family="Arial, sans-serif"
        font-size="14"
        font-weight="400"
        text-anchor="middle"
        fill="#64748b"
        letter-spacing="4">STOCK MANAGER</text>
</svg>
